<mxfile host="app.diagrams.net" modified="2023-11-08T17:09:39.992Z" agent="Mozilla/5.0 (X11; Linux x86_64) AppleWebKit/537.36 (KHTML, like Gecko) Chrome/119.0.0.0 Safari/537.36" etag="0S4dapgXToby9acjR0B7" version="22.0.8" type="device">
  <diagram name="Página-1" id="g3fnGgs9r4yZHIELF1q-">
    <mxGraphModel dx="2049" dy="2308" grid="1" gridSize="10" guides="1" tooltips="1" connect="1" arrows="1" fold="1" page="1" pageScale="1" pageWidth="827" pageHeight="1169" math="0" shadow="0">
      <root>
        <mxCell id="0" />
        <mxCell id="1" parent="0" />
        <mxCell id="-yaVqUtb58Py8cYCI8hH-15" value="Usuário" style="swimlane;fontStyle=1;align=center;verticalAlign=top;childLayout=stackLayout;horizontal=1;startSize=26;horizontalStack=0;resizeParent=1;resizeParentMax=0;resizeLast=0;collapsible=1;marginBottom=0;whiteSpace=wrap;html=1;fixedWidth=0;resizeHeight=1;resizeWidth=1;" vertex="1" parent="1">
          <mxGeometry x="130" y="150" width="160" height="160" as="geometry" />
        </mxCell>
        <mxCell id="-yaVqUtb58Py8cYCI8hH-16" value="+ nome: String&lt;br&gt;+ telefone: String&lt;br&gt;+ endereço: String&lt;br&gt;+ cpf: String&lt;br&gt;+ histórico: Pedidos[]" style="text;strokeColor=none;fillColor=none;align=left;verticalAlign=top;spacingLeft=4;spacingRight=4;overflow=hidden;rotatable=0;points=[[0,0.5],[1,0.5]];portConstraint=eastwest;whiteSpace=wrap;html=1;" vertex="1" parent="-yaVqUtb58Py8cYCI8hH-15">
          <mxGeometry y="26" width="160" height="84" as="geometry" />
        </mxCell>
        <mxCell id="-yaVqUtb58Py8cYCI8hH-17" value="" style="line;strokeWidth=1;fillColor=none;align=left;verticalAlign=middle;spacingTop=-1;spacingLeft=3;spacingRight=3;rotatable=0;labelPosition=right;points=[];portConstraint=eastwest;strokeColor=inherit;" vertex="1" parent="-yaVqUtb58Py8cYCI8hH-15">
          <mxGeometry y="110" width="160" height="8" as="geometry" />
        </mxCell>
        <mxCell id="-yaVqUtb58Py8cYCI8hH-18" value="+ fazerPedido(): void&lt;br&gt;+ consultarCardapio(): void" style="text;strokeColor=none;fillColor=none;align=left;verticalAlign=top;spacingLeft=4;spacingRight=4;overflow=hidden;rotatable=0;points=[[0,0.5],[1,0.5]];portConstraint=eastwest;whiteSpace=wrap;html=1;" vertex="1" parent="-yaVqUtb58Py8cYCI8hH-15">
          <mxGeometry y="118" width="160" height="42" as="geometry" />
        </mxCell>
        <mxCell id="-yaVqUtb58Py8cYCI8hH-46" value="Pedido" style="swimlane;fontStyle=1;align=center;verticalAlign=top;childLayout=stackLayout;horizontal=1;startSize=26;horizontalStack=0;resizeParent=1;resizeParentMax=0;resizeLast=0;collapsible=1;marginBottom=0;whiteSpace=wrap;html=1;" vertex="1" parent="1">
          <mxGeometry x="125" y="-260" width="170" height="300" as="geometry" />
        </mxCell>
        <mxCell id="-yaVqUtb58Py8cYCI8hH-47" value="+ numero: Int&lt;br style=&quot;border-color: var(--border-color);&quot;&gt;+ data: Date&lt;br style=&quot;border-color: var(--border-color);&quot;&gt;+ total: Float&lt;br style=&quot;border-color: var(--border-color);&quot;&gt;+ status: String&lt;br&gt;+ entregador: String&lt;br&gt;+ telefoneEntregador: String&lt;br&gt;+ tempoParaEntrega: String" style="text;strokeColor=none;fillColor=none;align=left;verticalAlign=top;spacingLeft=4;spacingRight=4;overflow=hidden;rotatable=0;points=[[0,0.5],[1,0.5]];portConstraint=eastwest;whiteSpace=wrap;html=1;" vertex="1" parent="-yaVqUtb58Py8cYCI8hH-46">
          <mxGeometry y="26" width="170" height="114" as="geometry" />
        </mxCell>
        <mxCell id="-yaVqUtb58Py8cYCI8hH-48" value="" style="line;strokeWidth=1;fillColor=none;align=left;verticalAlign=middle;spacingTop=-1;spacingLeft=3;spacingRight=3;rotatable=0;labelPosition=right;points=[];portConstraint=eastwest;strokeColor=inherit;" vertex="1" parent="-yaVqUtb58Py8cYCI8hH-46">
          <mxGeometry y="140" width="170" height="8" as="geometry" />
        </mxCell>
        <mxCell id="-yaVqUtb58Py8cYCI8hH-49" value="+ cancelar(): void&lt;br&gt;+ adicionarItem(): void&lt;br&gt;+ removerItem(): void&lt;br&gt;- atualizarStatus(): void&lt;br&gt;+ pagar(): void&lt;br&gt;+ consultar(): void&lt;br&gt;+ avaliar(): void&lt;br&gt;+ rastrear(): void&lt;br&gt;- frete(): void&lt;br&gt;+ tempoDeEntrega(): void" style="text;strokeColor=none;fillColor=none;align=left;verticalAlign=top;spacingLeft=4;spacingRight=4;overflow=hidden;rotatable=0;points=[[0,0.5],[1,0.5]];portConstraint=eastwest;whiteSpace=wrap;html=1;" vertex="1" parent="-yaVqUtb58Py8cYCI8hH-46">
          <mxGeometry y="148" width="170" height="152" as="geometry" />
        </mxCell>
        <mxCell id="-yaVqUtb58Py8cYCI8hH-50" value="Item" style="swimlane;fontStyle=1;align=center;verticalAlign=top;childLayout=stackLayout;horizontal=1;startSize=26;horizontalStack=0;resizeParent=1;resizeParentMax=0;resizeLast=0;collapsible=1;marginBottom=0;whiteSpace=wrap;html=1;" vertex="1" parent="1">
          <mxGeometry x="700" y="-220" width="160" height="70" as="geometry" />
        </mxCell>
        <mxCell id="-yaVqUtb58Py8cYCI8hH-51" value="+ quantidade: Int&lt;br style=&quot;border-color: var(--border-color);&quot;&gt;+ valor: Float" style="text;strokeColor=none;fillColor=none;align=left;verticalAlign=top;spacingLeft=4;spacingRight=4;overflow=hidden;rotatable=0;points=[[0,0.5],[1,0.5]];portConstraint=eastwest;whiteSpace=wrap;html=1;" vertex="1" parent="-yaVqUtb58Py8cYCI8hH-50">
          <mxGeometry y="26" width="160" height="44" as="geometry" />
        </mxCell>
        <mxCell id="-yaVqUtb58Py8cYCI8hH-61" value="Cardapio" style="swimlane;fontStyle=1;align=center;verticalAlign=top;childLayout=stackLayout;horizontal=1;startSize=26;horizontalStack=0;resizeParent=1;resizeParentMax=0;resizeLast=0;collapsible=1;marginBottom=0;whiteSpace=wrap;html=1;fixedWidth=0;resizeHeight=1;resizeWidth=1;" vertex="1" parent="1">
          <mxGeometry x="430" y="178" width="160" height="80" as="geometry" />
        </mxCell>
        <mxCell id="-yaVqUtb58Py8cYCI8hH-64" value="+ atualizarPratos(): void&lt;br&gt;+ adicionarPratos(): void&lt;br&gt;+ removerPratos(): void" style="text;strokeColor=none;fillColor=none;align=left;verticalAlign=top;spacingLeft=4;spacingRight=4;overflow=hidden;rotatable=0;points=[[0,0.5],[1,0.5]];portConstraint=eastwest;whiteSpace=wrap;html=1;" vertex="1" parent="-yaVqUtb58Py8cYCI8hH-61">
          <mxGeometry y="26" width="160" height="54" as="geometry" />
        </mxCell>
        <mxCell id="-yaVqUtb58Py8cYCI8hH-65" value="Prato" style="swimlane;fontStyle=1;align=center;verticalAlign=top;childLayout=stackLayout;horizontal=1;startSize=26;horizontalStack=0;resizeParent=1;resizeParentMax=0;resizeLast=0;collapsible=1;marginBottom=0;whiteSpace=wrap;html=1;fixedWidth=0;resizeHeight=1;resizeWidth=1;" vertex="1" parent="1">
          <mxGeometry x="700" y="150" width="180" height="150" as="geometry" />
        </mxCell>
        <mxCell id="-yaVqUtb58Py8cYCI8hH-66" value="+ nome: String&lt;br&gt;+ descrição: String&lt;br&gt;+ ingredientes: String[]&lt;br&gt;+ preco: Float&lt;br&gt;+ foto: File" style="text;strokeColor=none;fillColor=none;align=left;verticalAlign=top;spacingLeft=4;spacingRight=4;overflow=hidden;rotatable=0;points=[[0,0.5],[1,0.5]];portConstraint=eastwest;whiteSpace=wrap;html=1;" vertex="1" parent="-yaVqUtb58Py8cYCI8hH-65">
          <mxGeometry y="26" width="180" height="84" as="geometry" />
        </mxCell>
        <mxCell id="-yaVqUtb58Py8cYCI8hH-67" value="" style="line;strokeWidth=1;fillColor=none;align=left;verticalAlign=middle;spacingTop=-1;spacingLeft=3;spacingRight=3;rotatable=0;labelPosition=right;points=[];portConstraint=eastwest;strokeColor=inherit;" vertex="1" parent="-yaVqUtb58Py8cYCI8hH-65">
          <mxGeometry y="110" width="180" height="8" as="geometry" />
        </mxCell>
        <mxCell id="-yaVqUtb58Py8cYCI8hH-68" value="+ atualizar(): void" style="text;strokeColor=none;fillColor=none;align=left;verticalAlign=top;spacingLeft=4;spacingRight=4;overflow=hidden;rotatable=0;points=[[0,0.5],[1,0.5]];portConstraint=eastwest;whiteSpace=wrap;html=1;" vertex="1" parent="-yaVqUtb58Py8cYCI8hH-65">
          <mxGeometry y="118" width="180" height="32" as="geometry" />
        </mxCell>
        <mxCell id="-yaVqUtb58Py8cYCI8hH-73" value="Admin" style="swimlane;fontStyle=1;align=center;verticalAlign=top;childLayout=stackLayout;horizontal=1;startSize=26;horizontalStack=0;resizeParent=1;resizeParentMax=0;resizeLast=0;collapsible=1;marginBottom=0;whiteSpace=wrap;html=1;fixedWidth=0;resizeHeight=1;resizeWidth=1;" vertex="1" parent="1">
          <mxGeometry x="125" y="380" width="170" height="100" as="geometry" />
        </mxCell>
        <mxCell id="-yaVqUtb58Py8cYCI8hH-76" value="+ adicionarCardapio(): void&lt;br&gt;+ atualizarCardapio(): void&lt;br&gt;+ responderFeedback(): void&lt;br&gt;+ gerarRelatório(): void" style="text;strokeColor=none;fillColor=none;align=left;verticalAlign=top;spacingLeft=4;spacingRight=4;overflow=hidden;rotatable=0;points=[[0,0.5],[1,0.5]];portConstraint=eastwest;whiteSpace=wrap;html=1;" vertex="1" parent="-yaVqUtb58Py8cYCI8hH-73">
          <mxGeometry y="26" width="170" height="74" as="geometry" />
        </mxCell>
        <mxCell id="-yaVqUtb58Py8cYCI8hH-86" value="Feedback" style="swimlane;fontStyle=1;align=center;verticalAlign=top;childLayout=stackLayout;horizontal=1;startSize=26;horizontalStack=0;resizeParent=1;resizeParentMax=0;resizeLast=0;collapsible=1;marginBottom=0;whiteSpace=wrap;html=1;fixedWidth=0;resizeHeight=1;resizeWidth=1;" vertex="1" parent="1">
          <mxGeometry x="430" y="-100" width="180" height="120" as="geometry" />
        </mxCell>
        <mxCell id="-yaVqUtb58Py8cYCI8hH-87" value="+ usuário: String&lt;br style=&quot;border-color: var(--border-color);&quot;&gt;+ texto: String&lt;br style=&quot;border-color: var(--border-color);&quot;&gt;+ avaliacao: Int" style="text;strokeColor=none;fillColor=none;align=left;verticalAlign=top;spacingLeft=4;spacingRight=4;overflow=hidden;rotatable=0;points=[[0,0.5],[1,0.5]];portConstraint=eastwest;whiteSpace=wrap;html=1;" vertex="1" parent="-yaVqUtb58Py8cYCI8hH-86">
          <mxGeometry y="26" width="180" height="54" as="geometry" />
        </mxCell>
        <mxCell id="-yaVqUtb58Py8cYCI8hH-88" value="" style="line;strokeWidth=1;fillColor=none;align=left;verticalAlign=middle;spacingTop=-1;spacingLeft=3;spacingRight=3;rotatable=0;labelPosition=right;points=[];portConstraint=eastwest;strokeColor=inherit;" vertex="1" parent="-yaVqUtb58Py8cYCI8hH-86">
          <mxGeometry y="80" width="180" height="8" as="geometry" />
        </mxCell>
        <mxCell id="-yaVqUtb58Py8cYCI8hH-89" value="+ responder(): void" style="text;strokeColor=none;fillColor=none;align=left;verticalAlign=top;spacingLeft=4;spacingRight=4;overflow=hidden;rotatable=0;points=[[0,0.5],[1,0.5]];portConstraint=eastwest;whiteSpace=wrap;html=1;" vertex="1" parent="-yaVqUtb58Py8cYCI8hH-86">
          <mxGeometry y="88" width="180" height="32" as="geometry" />
        </mxCell>
        <mxCell id="-yaVqUtb58Py8cYCI8hH-93" value="Relatório" style="swimlane;fontStyle=1;align=center;verticalAlign=top;childLayout=stackLayout;horizontal=1;startSize=26;horizontalStack=0;resizeParent=1;resizeParentMax=0;resizeLast=0;collapsible=1;marginBottom=0;whiteSpace=wrap;html=1;fixedWidth=0;resizeHeight=1;resizeWidth=1;" vertex="1" parent="1">
          <mxGeometry x="125" y="585" width="180" height="160" as="geometry" />
        </mxCell>
        <mxCell id="-yaVqUtb58Py8cYCI8hH-94" value="+ totalVendido: Int&lt;br style=&quot;border-color: var(--border-color);&quot;&gt;+ totalFaturacao: Float&lt;br style=&quot;border-color: var(--border-color);&quot;&gt;+ mediaAvaliacoes: Float&lt;br&gt;+ totalClientes: Int&lt;br&gt;+ totalDespesas: Float" style="text;strokeColor=none;fillColor=none;align=left;verticalAlign=top;spacingLeft=4;spacingRight=4;overflow=hidden;rotatable=0;points=[[0,0.5],[1,0.5]];portConstraint=eastwest;whiteSpace=wrap;html=1;" vertex="1" parent="-yaVqUtb58Py8cYCI8hH-93">
          <mxGeometry y="26" width="180" height="84" as="geometry" />
        </mxCell>
        <mxCell id="-yaVqUtb58Py8cYCI8hH-95" value="" style="line;strokeWidth=1;fillColor=none;align=left;verticalAlign=middle;spacingTop=-1;spacingLeft=3;spacingRight=3;rotatable=0;labelPosition=right;points=[];portConstraint=eastwest;strokeColor=inherit;" vertex="1" parent="-yaVqUtb58Py8cYCI8hH-93">
          <mxGeometry y="110" width="180" height="8" as="geometry" />
        </mxCell>
        <mxCell id="-yaVqUtb58Py8cYCI8hH-96" value="+ exportar(): void&lt;br&gt;+ visualizar(): void" style="text;strokeColor=none;fillColor=none;align=left;verticalAlign=top;spacingLeft=4;spacingRight=4;overflow=hidden;rotatable=0;points=[[0,0.5],[1,0.5]];portConstraint=eastwest;whiteSpace=wrap;html=1;" vertex="1" parent="-yaVqUtb58Py8cYCI8hH-93">
          <mxGeometry y="118" width="180" height="42" as="geometry" />
        </mxCell>
        <mxCell id="-yaVqUtb58Py8cYCI8hH-100" value="" style="endArrow=block;dashed=1;endFill=0;endSize=12;html=1;rounded=0;entryX=0.515;entryY=1.016;entryDx=0;entryDy=0;entryPerimeter=0;exitX=0.468;exitY=-0.014;exitDx=0;exitDy=0;exitPerimeter=0;" edge="1" parent="1" source="-yaVqUtb58Py8cYCI8hH-73">
          <mxGeometry width="160" relative="1" as="geometry">
            <mxPoint x="202.6" y="380" as="sourcePoint" />
            <mxPoint x="204.99999999999997" y="310.672" as="targetPoint" />
          </mxGeometry>
        </mxCell>
        <mxCell id="-yaVqUtb58Py8cYCI8hH-101" value="" style="endArrow=open;html=1;endSize=12;startArrow=diamondThin;startSize=14;startFill=0;align=left;verticalAlign=bottom;rounded=0;exitX=0.493;exitY=1.006;exitDx=0;exitDy=0;exitPerimeter=0;entryX=0.471;entryY=0;entryDx=0;entryDy=0;entryPerimeter=0;" edge="1" parent="1" source="-yaVqUtb58Py8cYCI8hH-76" target="-yaVqUtb58Py8cYCI8hH-93">
          <mxGeometry x="-1" y="3" relative="1" as="geometry">
            <mxPoint x="209.43999999999988" y="458.9200000000001" as="sourcePoint" />
            <mxPoint x="210" y="580" as="targetPoint" />
          </mxGeometry>
        </mxCell>
        <mxCell id="-yaVqUtb58Py8cYCI8hH-102" value="1..*" style="text;html=1;align=center;verticalAlign=middle;resizable=0;points=[];autosize=1;strokeColor=none;fillColor=none;" vertex="1" parent="1">
          <mxGeometry x="205" y="480" width="40" height="30" as="geometry" />
        </mxCell>
        <mxCell id="-yaVqUtb58Py8cYCI8hH-103" value="0..*" style="text;html=1;align=center;verticalAlign=middle;resizable=0;points=[];autosize=1;strokeColor=none;fillColor=none;" vertex="1" parent="1">
          <mxGeometry x="205" y="550" width="40" height="30" as="geometry" />
        </mxCell>
        <mxCell id="-yaVqUtb58Py8cYCI8hH-104" value="" style="endArrow=open;html=1;endSize=12;startArrow=diamondThin;startSize=14;startFill=0;edgeStyle=orthogonalEdgeStyle;align=left;verticalAlign=bottom;rounded=0;entryX=0;entryY=0.274;entryDx=0;entryDy=0;entryPerimeter=0;" edge="1" parent="1" target="-yaVqUtb58Py8cYCI8hH-64">
          <mxGeometry x="-1" y="3" relative="1" as="geometry">
            <mxPoint x="290" y="217.8" as="sourcePoint" />
            <mxPoint x="450" y="217.8" as="targetPoint" />
          </mxGeometry>
        </mxCell>
        <mxCell id="-yaVqUtb58Py8cYCI8hH-105" value="0..*" style="text;html=1;align=center;verticalAlign=middle;resizable=0;points=[];autosize=1;strokeColor=none;fillColor=none;" vertex="1" parent="1">
          <mxGeometry x="290" y="190" width="40" height="30" as="geometry" />
        </mxCell>
        <mxCell id="-yaVqUtb58Py8cYCI8hH-106" value="1" style="text;html=1;align=center;verticalAlign=middle;resizable=0;points=[];autosize=1;strokeColor=none;fillColor=none;" vertex="1" parent="1">
          <mxGeometry x="395" y="190" width="30" height="30" as="geometry" />
        </mxCell>
        <mxCell id="-yaVqUtb58Py8cYCI8hH-108" value="" style="endArrow=open;html=1;endSize=12;startArrow=diamondThin;startSize=14;startFill=1;edgeStyle=orthogonalEdgeStyle;align=left;verticalAlign=bottom;rounded=0;entryX=0.5;entryY=1;entryDx=0;entryDy=0;" edge="1" parent="1" target="-yaVqUtb58Py8cYCI8hH-61">
          <mxGeometry x="-1" y="3" relative="1" as="geometry">
            <mxPoint x="295" y="450" as="sourcePoint" />
            <mxPoint x="455" y="450" as="targetPoint" />
          </mxGeometry>
        </mxCell>
        <mxCell id="-yaVqUtb58Py8cYCI8hH-109" value="1..*" style="text;html=1;align=center;verticalAlign=middle;resizable=0;points=[];autosize=1;strokeColor=none;fillColor=none;" vertex="1" parent="1">
          <mxGeometry x="305" y="420" width="40" height="30" as="geometry" />
        </mxCell>
        <mxCell id="-yaVqUtb58Py8cYCI8hH-111" value="1" style="text;html=1;align=center;verticalAlign=middle;resizable=0;points=[];autosize=1;strokeColor=none;fillColor=none;" vertex="1" parent="1">
          <mxGeometry x="520" y="258" width="30" height="30" as="geometry" />
        </mxCell>
        <mxCell id="-yaVqUtb58Py8cYCI8hH-112" value="" style="endArrow=open;html=1;endSize=12;startArrow=diamondThin;startSize=14;startFill=1;align=left;verticalAlign=bottom;rounded=0;entryX=0.441;entryY=1.013;entryDx=0;entryDy=0;entryPerimeter=0;" edge="1" parent="1">
          <mxGeometry x="-1" y="3" relative="1" as="geometry">
            <mxPoint x="210" y="148" as="sourcePoint" />
            <mxPoint x="214.9699999999999" y="39.99599999999988" as="targetPoint" />
          </mxGeometry>
        </mxCell>
        <mxCell id="-yaVqUtb58Py8cYCI8hH-113" value="0..*" style="text;html=1;align=center;verticalAlign=middle;resizable=0;points=[];autosize=1;strokeColor=none;fillColor=none;" vertex="1" parent="1">
          <mxGeometry x="210" y="50" width="40" height="30" as="geometry" />
        </mxCell>
        <mxCell id="-yaVqUtb58Py8cYCI8hH-114" value="1" style="text;html=1;align=center;verticalAlign=middle;resizable=0;points=[];autosize=1;strokeColor=none;fillColor=none;" vertex="1" parent="1">
          <mxGeometry x="210" y="120" width="30" height="30" as="geometry" />
        </mxCell>
        <mxCell id="-yaVqUtb58Py8cYCI8hH-115" value="" style="endArrow=open;html=1;endSize=12;startArrow=diamondThin;startSize=14;startFill=0;align=left;verticalAlign=bottom;rounded=0;entryX=-0.012;entryY=0.037;entryDx=0;entryDy=0;entryPerimeter=0;" edge="1" parent="1" target="-yaVqUtb58Py8cYCI8hH-51">
          <mxGeometry x="-1" y="3" relative="1" as="geometry">
            <mxPoint x="295" y="-190" as="sourcePoint" />
            <mxPoint x="455" y="-190" as="targetPoint" />
          </mxGeometry>
        </mxCell>
        <mxCell id="-yaVqUtb58Py8cYCI8hH-116" value="0..*" style="text;html=1;align=center;verticalAlign=middle;resizable=0;points=[];autosize=1;strokeColor=none;fillColor=none;" vertex="1" parent="1">
          <mxGeometry x="290" y="-220" width="40" height="30" as="geometry" />
        </mxCell>
        <mxCell id="-yaVqUtb58Py8cYCI8hH-117" value="1..*" style="text;html=1;align=center;verticalAlign=middle;resizable=0;points=[];autosize=1;strokeColor=none;fillColor=none;" vertex="1" parent="1">
          <mxGeometry x="650" y="-220" width="40" height="30" as="geometry" />
        </mxCell>
        <mxCell id="-yaVqUtb58Py8cYCI8hH-118" value="" style="endArrow=open;html=1;endSize=12;startArrow=diamondThin;startSize=14;startFill=1;align=left;verticalAlign=bottom;rounded=0;" edge="1" parent="1">
          <mxGeometry x="-1" y="3" relative="1" as="geometry">
            <mxPoint x="295" y="-40.29" as="sourcePoint" />
            <mxPoint x="430" y="-40" as="targetPoint" />
          </mxGeometry>
        </mxCell>
        <mxCell id="-yaVqUtb58Py8cYCI8hH-119" value="1" style="text;html=1;align=center;verticalAlign=middle;resizable=0;points=[];autosize=1;strokeColor=none;fillColor=none;" vertex="1" parent="1">
          <mxGeometry x="295" y="-72" width="30" height="30" as="geometry" />
        </mxCell>
        <mxCell id="-yaVqUtb58Py8cYCI8hH-120" value="0..1" style="text;html=1;align=center;verticalAlign=middle;resizable=0;points=[];autosize=1;strokeColor=none;fillColor=none;" vertex="1" parent="1">
          <mxGeometry x="385" y="-72" width="40" height="30" as="geometry" />
        </mxCell>
        <mxCell id="-yaVqUtb58Py8cYCI8hH-121" value="" style="endArrow=open;html=1;endSize=12;startArrow=diamondThin;startSize=14;startFill=1;align=left;verticalAlign=bottom;rounded=0;entryX=-0.025;entryY=0.875;entryDx=0;entryDy=0;entryPerimeter=0;" edge="1" parent="1" target="-yaVqUtb58Py8cYCI8hH-89">
          <mxGeometry x="-1" y="3" relative="1" as="geometry">
            <mxPoint x="295" y="420" as="sourcePoint" />
            <mxPoint x="455" y="420" as="targetPoint" />
            <Array as="points">
              <mxPoint x="350" y="390" />
            </Array>
          </mxGeometry>
        </mxCell>
        <mxCell id="-yaVqUtb58Py8cYCI8hH-122" value="1..*" style="text;html=1;align=center;verticalAlign=middle;resizable=0;points=[];autosize=1;strokeColor=none;fillColor=none;" vertex="1" parent="1">
          <mxGeometry x="290" y="380" width="40" height="30" as="geometry" />
        </mxCell>
        <mxCell id="-yaVqUtb58Py8cYCI8hH-123" value="0..1" style="text;html=1;align=center;verticalAlign=middle;resizable=0;points=[];autosize=1;strokeColor=none;fillColor=none;" vertex="1" parent="1">
          <mxGeometry x="374" y="20" width="40" height="30" as="geometry" />
        </mxCell>
        <mxCell id="-yaVqUtb58Py8cYCI8hH-124" value="" style="endArrow=open;html=1;endSize=12;startArrow=diamondThin;startSize=14;startFill=0;align=left;verticalAlign=bottom;rounded=0;entryX=-0.001;entryY=0.646;entryDx=0;entryDy=0;entryPerimeter=0;" edge="1" parent="1" target="-yaVqUtb58Py8cYCI8hH-66">
          <mxGeometry x="-1" y="3" relative="1" as="geometry">
            <mxPoint x="590" y="228.79000000000002" as="sourcePoint" />
            <mxPoint x="730" y="229.99" as="targetPoint" />
          </mxGeometry>
        </mxCell>
        <mxCell id="-yaVqUtb58Py8cYCI8hH-125" value="0..1" style="text;html=1;align=center;verticalAlign=middle;resizable=0;points=[];autosize=1;strokeColor=none;fillColor=none;" vertex="1" parent="1">
          <mxGeometry x="600" y="200" width="40" height="30" as="geometry" />
        </mxCell>
        <mxCell id="-yaVqUtb58Py8cYCI8hH-126" value="1..*" style="text;html=1;align=center;verticalAlign=middle;resizable=0;points=[];autosize=1;strokeColor=none;fillColor=none;" vertex="1" parent="1">
          <mxGeometry x="650" y="200" width="40" height="30" as="geometry" />
        </mxCell>
        <mxCell id="-yaVqUtb58Py8cYCI8hH-127" value="" style="endArrow=open;html=1;endSize=12;startArrow=diamondThin;startSize=14;startFill=1;align=left;verticalAlign=bottom;rounded=0;entryX=0.463;entryY=-0.029;entryDx=0;entryDy=0;entryPerimeter=0;" edge="1" parent="1" source="-yaVqUtb58Py8cYCI8hH-51" target="-yaVqUtb58Py8cYCI8hH-65">
          <mxGeometry x="-1" y="3" relative="1" as="geometry">
            <mxPoint x="690" y="-110.28999999999999" as="sourcePoint" />
            <mxPoint x="825" y="-110" as="targetPoint" />
          </mxGeometry>
        </mxCell>
        <mxCell id="-yaVqUtb58Py8cYCI8hH-128" value="1" style="text;html=1;align=center;verticalAlign=middle;resizable=0;points=[];autosize=1;strokeColor=none;fillColor=none;" vertex="1" parent="1">
          <mxGeometry x="792" y="100" width="30" height="30" as="geometry" />
        </mxCell>
        <mxCell id="-yaVqUtb58Py8cYCI8hH-129" value="0..*" style="text;html=1;align=center;verticalAlign=middle;resizable=0;points=[];autosize=1;strokeColor=none;fillColor=none;" vertex="1" parent="1">
          <mxGeometry x="787" y="-140" width="40" height="30" as="geometry" />
        </mxCell>
      </root>
    </mxGraphModel>
  </diagram>
</mxfile>
